<svg xmlns="http://www.w3.org/2000/svg" viewBox="-2456 61 129.488 68">
  <defs>
    <style>
      .cls-1 {
        fill: #313133;
        fill-rule: evenodd;
      }

      .cls-2 {
        fill: #fff;
      }
    </style>
  </defs>
  <g id="Groupe_455" data-name="Groupe 455" transform="translate(-2496 41)">
    <path id="logo--brand--details" class="cls-1" d="M129.175.767A2.229,2.229,0,0,0,127.758.3C126.924.271,120.7,0,120.7,0V1.343l6.389.289a1.417,1.417,0,0,1,.628.164.854.854,0,0,1,.2.308V46.937a1.064,1.064,0,0,1-.2.246,1.421,1.421,0,0,1-.628.165l-6.389.11V48.8s6.221-.136,7.055-.161a2.2,2.2,0,0,0,1.417-.47,1.362,1.362,0,0,0,.313-.742V1.508a1.012,1.012,0,0,0-.313-.739M.314.767A2.234,2.234,0,0,1,1.73.3C2.564.272,8.785,0,8.785,0V1.343L2.4,1.631a1.42,1.42,0,0,0-.628.164.857.857,0,0,0-.2.308V46.937a1.065,1.065,0,0,0,.2.246,1.424,1.424,0,0,0,.628.165l6.389.11V48.8s-6.221-.136-7.055-.161a2.2,2.2,0,0,1-1.415-.47A1.351,1.351,0,0,1,0,47.429V1.508A1.017,1.017,0,0,1,.314.767M1.445,54.542H.725v4.966H3.462v-.524H1.446V54.542Zm4.8,4.966h.643v-3.69h-.72v2.767a.836.836,0,0,1-.286.341.792.792,0,0,1-.446.119.456.456,0,0,1-.42-.237,1.667,1.667,0,0,1-.141-.8V55.818H4.157V58a1.994,1.994,0,0,0,.292,1.2.964.964,0,0,0,.814.385,1.016,1.016,0,0,0,.546-.147,1.132,1.132,0,0,0,.39-.42l.045.494Zm2.214-3.69H7.641L8.66,57.639,7.608,59.508h.821l.631-1.391h.021l.629,1.391h.82L9.476,57.639l1.019-1.822H9.672l-.6,1.348H9.047l-.59-1.348ZM13.2,59.454a1.331,1.331,0,0,0,.487-.325l-.227-.429a1.437,1.437,0,0,1-.4.265,1.325,1.325,0,0,1-.511.091.711.711,0,0,1-.62-.312,1.358,1.358,0,0,1-.218-.79v-.147h2.067v-.477a1.765,1.765,0,0,0-.352-1.152,1.228,1.228,0,0,0-1-.428,1.293,1.293,0,0,0-1.025.471,1.767,1.767,0,0,0-.4,1.194v.54a1.684,1.684,0,0,0,.412,1.171,1.406,1.406,0,0,0,1.1.457,1.826,1.826,0,0,0,.7-.126Zm-.3-2.929a1.16,1.16,0,0,1,.163.645v.142H11.708a1.476,1.476,0,0,1,.21-.744.57.57,0,0,1,.5-.293.536.536,0,0,1,.479.251Zm1.7-.708v3.69h.716V56.746a.789.789,0,0,1,.249-.336.62.62,0,0,1,.387-.121.482.482,0,0,1,.434.237,1.545,1.545,0,0,1,.149.786v2.2h.716V57.2c0-.034,0-.089-.007-.166a.384.384,0,0,1,0-.087,1.085,1.085,0,0,1,.24-.476.532.532,0,0,1,.411-.179.477.477,0,0,1,.429.228,1.565,1.565,0,0,1,.146.8v2.2h.72V57.315a2,2,0,0,0-.283-1.179.9.9,0,0,0-.772-.387.969.969,0,0,0-.589.181,1.261,1.261,0,0,0-.4.5,1.033,1.033,0,0,0-.345-.514.887.887,0,0,0-.543-.169,1.05,1.05,0,0,0-.565.148,1.161,1.161,0,0,0-.4.421l-.039-.5H14.6Zm8.415,1.651a2.131,2.131,0,0,0-.33-1.25,1.081,1.081,0,0,0-.937-.469,1.017,1.017,0,0,0-.494.117,1.045,1.045,0,0,0-.362.34v-2.02h-.72v5.321h.625l.053-.432a1.063,1.063,0,0,0,.377.377,1.045,1.045,0,0,0,.527.128,1.1,1.1,0,0,0,.93-.439,1.9,1.9,0,0,0,.329-1.171v-.5Zm-.717.5a1.533,1.533,0,0,1-.172.785.594.594,0,0,1-.553.289.684.684,0,0,1-.414-.124.812.812,0,0,1-.266-.349V56.8a.9.9,0,0,1,.264-.37.626.626,0,0,1,.409-.138.588.588,0,0,1,.556.324,1.793,1.793,0,0,1,.177.856Zm1.458-.068a1.8,1.8,0,0,0,.4,1.209,1.512,1.512,0,0,0,2.189,0,1.8,1.8,0,0,0,.4-1.209v-.471a1.806,1.806,0,0,0-.4-1.21,1.5,1.5,0,0,0-2.188,0,1.812,1.812,0,0,0-.4,1.208V57.9Zm.72-.475a1.61,1.61,0,0,1,.192-.828.681.681,0,0,1,1.162,0,1.6,1.6,0,0,1,.194.826V57.9a1.6,1.6,0,0,1-.194.831.682.682,0,0,1-1.162,0,1.612,1.612,0,0,1-.191-.831v-.472Zm5.2,2.081h.643v-3.69H29.6v2.767a.831.831,0,0,1-.286.341.788.788,0,0,1-.445.119.458.458,0,0,1-.42-.237,1.671,1.671,0,0,1-.14-.8V55.818h-.718V58a1.994,1.994,0,0,0,.292,1.2.958.958,0,0,0,.812.385,1.019,1.019,0,0,0,.547-.147,1.14,1.14,0,0,0,.39-.42l.045.494Zm3.369-3.718a.572.572,0,0,0-.117-.03.98.98,0,0,0-.146-.012.676.676,0,0,0-.45.166,1.153,1.153,0,0,0-.316.459l-.055-.556H31.3v3.69h.72v-2.63a.817.817,0,0,1,.226-.365.543.543,0,0,1,.37-.13l.339.018.085-.611Zm.514,2.18a1.876,1.876,0,0,0,.336,1.168,1.113,1.113,0,0,0,.937.442,1.05,1.05,0,0,0,.485-.108,1.017,1.017,0,0,0,.364-.318v.335a1.133,1.133,0,0,1-.19.709.7.7,0,0,1-.584.242,1.687,1.687,0,0,1-.849-.225l-.153.518A2.209,2.209,0,0,0,34.912,61a1.463,1.463,0,0,0,1.094-.4,1.513,1.513,0,0,0,.392-1.109V55.818h-.621l-.053.443a1.129,1.129,0,0,0-.376-.38.973.973,0,0,0-.511-.132,1.086,1.086,0,0,0-.942.486,2.192,2.192,0,0,0-.339,1.28v.455Zm.72-.455a1.875,1.875,0,0,1,.182-.886.6.6,0,0,1,.559-.341.619.619,0,0,1,.39.127.994.994,0,0,1,.271.347V58.6a.83.83,0,0,1-.268.328.677.677,0,0,1-.4.115.6.6,0,0,1-.557-.292,1.485,1.485,0,0,1-.178-.782v-.455Zm8.177-2.974h-.717V56.79H39.757V54.542h-.721v4.966h.72V57.315h1.981v2.193h.716V54.542ZM43.38,57.9a1.8,1.8,0,0,0,.4,1.209,1.512,1.512,0,0,0,2.189,0,1.8,1.8,0,0,0,.4-1.209v-.471a1.806,1.806,0,0,0-.4-1.21,1.5,1.5,0,0,0-2.188,0,1.811,1.811,0,0,0-.4,1.208V57.9Zm.72-.475a1.61,1.61,0,0,1,.191-.828.682.682,0,0,1,1.163,0,1.6,1.6,0,0,1,.194.826V57.9a1.612,1.612,0,0,1-.194.831.684.684,0,0,1-1.164,0,1.629,1.629,0,0,1-.19-.831v-.472Zm5.2,2.081h.641v-3.69h-.72v2.767a.831.831,0,0,1-.286.341.788.788,0,0,1-.445.119.456.456,0,0,1-.42-.237,1.692,1.692,0,0,1-.14-.8V55.818H47.21V58a1.994,1.994,0,0,0,.292,1.2.961.961,0,0,0,.812.385,1.024,1.024,0,0,0,.548-.147,1.145,1.145,0,0,0,.389-.42l.046.494Zm3.243-.567a.645.645,0,0,1-.439.138.723.723,0,0,1-.475-.159.664.664,0,0,1-.206-.517h-.672l-.007.021a1.023,1.023,0,0,0,.349.809,1.389,1.389,0,0,0,1,.347,1.493,1.493,0,0,0,.952-.286.906.906,0,0,0,.362-.744.87.87,0,0,0-.293-.677,2.619,2.619,0,0,0-.9-.473,2.362,2.362,0,0,1-.56-.321.437.437,0,0,1-.129-.334.461.461,0,0,1,.15-.345.578.578,0,0,1,.42-.147.523.523,0,0,1,.429.189.694.694,0,0,1,.154.452h.691l.007-.02a1,1,0,0,0-.337-.8,1.347,1.347,0,0,0-.943-.321,1.367,1.367,0,0,0-.918.3.923.923,0,0,0-.349.725.822.822,0,0,0,.285.65A2.9,2.9,0,0,0,52,57.9a1.914,1.914,0,0,1,.556.326.5.5,0,0,1,.147.364.453.453,0,0,1-.158.356Zm3.793.514a1.332,1.332,0,0,0,.487-.325l-.228-.429a1.437,1.437,0,0,1-.4.265,1.326,1.326,0,0,1-.512.091.711.711,0,0,1-.62-.312,1.358,1.358,0,0,1-.217-.79v-.147h2.065v-.477a1.76,1.76,0,0,0-.352-1.152,1.223,1.223,0,0,0-1-.428,1.293,1.293,0,0,0-1.025.471,1.767,1.767,0,0,0-.4,1.194v.54a1.684,1.684,0,0,0,.412,1.171,1.407,1.407,0,0,0,1.1.457,1.826,1.826,0,0,0,.7-.126Zm-.3-2.929a1.167,1.167,0,0,1,.163.645v.142H54.841a1.493,1.493,0,0,1,.21-.744.57.57,0,0,1,.5-.293.536.536,0,0,1,.479.251Zm3.1,1.377a1.8,1.8,0,0,0,.4,1.209,1.512,1.512,0,0,0,2.189,0,1.8,1.8,0,0,0,.4-1.209v-.471a1.806,1.806,0,0,0-.4-1.21,1.5,1.5,0,0,0-2.189,0,1.811,1.811,0,0,0-.4,1.208V57.9Zm.72-.475a1.609,1.609,0,0,1,.192-.828.682.682,0,0,1,1.163,0,1.6,1.6,0,0,1,.193.826V57.9a1.62,1.62,0,0,1-.193.831.683.683,0,0,1-1.163,0,1.612,1.612,0,0,1-.192-.831v-.472ZM63.9,59.508v-3.2h.671v-.494H63.9v-.474a.9.9,0,0,1,.123-.509.412.412,0,0,1,.36-.176,1.213,1.213,0,0,1,.3.037l.069-.508q-.12-.031-.242-.054a1.249,1.249,0,0,0-.211-.019,1.058,1.058,0,0,0-.823.321,1.3,1.3,0,0,0-.292.908v.474h-.5v.494h.5v3.2Zm5.7-2.735H67.677V55.067H69.9v-.525H66.955v4.966h.721V57.3H69.6Zm1.113,2.736h.722V55.818h-.722Zm0-4.66h.722v-.662h-.722Zm1.736.969v3.69h.719V56.776a.968.968,0,0,1,.277-.356.621.621,0,0,1,.389-.132.533.533,0,0,1,.463.212,1.293,1.293,0,0,1,.152.726v2.282h.72V57.22a1.8,1.8,0,0,0-.28-1.113.94.94,0,0,0-.786-.358.981.981,0,0,0-.553.162,1.26,1.26,0,0,0-.4.452l-.039-.546h-.659Zm6.356,3.69a2.363,2.363,0,0,1-.088-.39,3.08,3.08,0,0,1-.026-.414V56.991a1.185,1.185,0,0,0-.354-.921,1.312,1.312,0,0,0-.92-.321,1.383,1.383,0,0,0-.961.334.946.946,0,0,0-.356.761l.011.02.686,0a.6.6,0,0,1,.157-.424.608.608,0,0,1,.86.019.792.792,0,0,1,.157.523v.377H77.43a1.64,1.64,0,0,0-1.052.3A1.011,1.011,0,0,0,76,58.5a1.11,1.11,0,0,0,.274.79.994.994,0,0,0,.762.3.962.962,0,0,0,.535-.157,1.334,1.334,0,0,0,.4-.406,2.117,2.117,0,0,0,.1.49H78.8ZM76.847,58.9a.629.629,0,0,1-.123-.4.724.724,0,0,1,.182-.5.659.659,0,0,1,.515-.2h.545v.758a.853.853,0,0,1-.3.36.783.783,0,0,1-.461.144.434.434,0,0,1-.354-.154Zm2.819-3.084v3.69h.72V56.776a.957.957,0,0,1,.276-.356.621.621,0,0,1,.39-.132.536.536,0,0,1,.463.212,1.293,1.293,0,0,1,.152.726v2.282h.72V57.22a1.8,1.8,0,0,0-.28-1.113.94.94,0,0,0-.785-.358.988.988,0,0,0-.554.162,1.269,1.269,0,0,0-.406.452l-.038-.546h-.66Zm4.459,2.92a1.687,1.687,0,0,1-.174-.818v-.51a1.689,1.689,0,0,1,.174-.813.6.6,0,0,1,.583-.321.559.559,0,0,1,.467.232.971.971,0,0,1,.176.6H86l.011-.021a1.3,1.3,0,0,0-.353-.968,1.26,1.26,0,0,0-.946-.373,1.327,1.327,0,0,0-1.094.471,1.832,1.832,0,0,0-.381,1.194v.509a1.814,1.814,0,0,0,.381,1.19,1.335,1.335,0,0,0,1.1.467,1.305,1.305,0,0,0,.925-.358,1.115,1.115,0,0,0,.366-.88L86,58.322H85.35a.757.757,0,0,1-.184.533.6.6,0,0,1-.454.2.61.61,0,0,1-.586-.318Zm2.722.772h.72V55.818h-.72Zm0-4.66h.72v-.662h-.72Zm4.4,4.659a2.2,2.2,0,0,1-.086-.39,3.082,3.082,0,0,1-.027-.414V56.991a1.185,1.185,0,0,0-.354-.921,1.315,1.315,0,0,0-.92-.321,1.391,1.391,0,0,0-.963.334.947.947,0,0,0-.354.761l.011.02.683,0a.6.6,0,0,1,.16-.424.608.608,0,0,1,.86.019.792.792,0,0,1,.157.523v.377H89.88a1.635,1.635,0,0,0-1.052.3,1.011,1.011,0,0,0-.374.831,1.11,1.11,0,0,0,.274.79.991.991,0,0,0,.762.3.958.958,0,0,0,.535-.157,1.326,1.326,0,0,0,.4-.406,1.663,1.663,0,0,0,.032.244,2.139,2.139,0,0,0,.065.246ZM89.3,58.9a.624.624,0,0,1-.124-.4.732.732,0,0,1,.182-.5.659.659,0,0,1,.515-.2h.545v.758a.859.859,0,0,1-.3.36.789.789,0,0,1-.461.144A.427.427,0,0,1,89.3,58.9Zm2.851.608h.72V54.187h-.72Zm6.4-4.968H95.184v.525H96.5v4.441h.72V55.067h1.328v-.525Zm2.3,4.913a1.353,1.353,0,0,0,.486-.325l-.228-.429a1.417,1.417,0,0,1-.4.265,1.319,1.319,0,0,1-.511.091.709.709,0,0,1-.618-.312,1.345,1.345,0,0,1-.219-.79v-.147h2.066v-.477a1.769,1.769,0,0,0-.352-1.152,1.225,1.225,0,0,0-1.005-.428,1.29,1.29,0,0,0-1.023.471,1.772,1.772,0,0,0-.4,1.194v.54a1.685,1.685,0,0,0,.412,1.171,1.4,1.4,0,0,0,1.1.457,1.83,1.83,0,0,0,.7-.126Zm-.305-2.929a1.16,1.16,0,0,1,.163.645v.142H99.358a1.493,1.493,0,0,1,.209-.744.571.571,0,0,1,.5-.293.537.537,0,0,1,.479.251Zm2.472,2.212a1.7,1.7,0,0,1-.173-.818v-.51a1.709,1.709,0,0,1,.172-.813.605.605,0,0,1,.583-.321.558.558,0,0,1,.467.232.971.971,0,0,1,.176.6h.646l.011-.021a1.3,1.3,0,0,0-.353-.968,1.263,1.263,0,0,0-.947-.373,1.332,1.332,0,0,0-1.1.471,3.423,3.423,0,0,0-.381,1.194v.509a1.823,1.823,0,0,0,.381,1.19,1.337,1.337,0,0,0,1.1.467,1.3,1.3,0,0,0,.926-.358,1.115,1.115,0,0,0,.367-.88l-.007-.021h-.647a.757.757,0,0,1-.184.533.6.6,0,0,1-.455.2.61.61,0,0,1-.587-.318Zm3.4-4.55h-.72v5.321h.72V56.742a.917.917,0,0,1,.283-.333.661.661,0,0,1,.392-.121.519.519,0,0,1,.459.223,1.318,1.318,0,0,1,.154.732v2.264h.721V57.25a1.829,1.829,0,0,0-.287-1.133.964.964,0,0,0-.806-.368.948.948,0,0,0-.522.148,1.239,1.239,0,0,0-.394.414V54.187Zm2.984,1.63v3.69h.72V56.776a.961.961,0,0,1,.278-.356.617.617,0,0,1,.389-.132.531.531,0,0,1,.461.212,1.277,1.277,0,0,1,.154.726v2.282h.72V57.22a1.812,1.812,0,0,0-.28-1.113.942.942,0,0,0-.785-.358.981.981,0,0,0-.555.162,1.25,1.25,0,0,0-.4.452l-.039-.546h-.66Zm3.566,2.085a1.8,1.8,0,0,0,.4,1.209,1.514,1.514,0,0,0,2.191,0,1.8,1.8,0,0,0,.4-1.209v-.471a1.815,1.815,0,0,0-.4-1.21,1.5,1.5,0,0,0-2.189,0,1.811,1.811,0,0,0-.4,1.208V57.9Zm.72-.475a1.61,1.61,0,0,1,.192-.828.682.682,0,0,1,1.163,0,1.6,1.6,0,0,1,.194.826V57.9a1.612,1.612,0,0,1-.194.831.684.684,0,0,1-1.164,0,1.629,1.629,0,0,1-.192-.831v-.472Zm3.165,2.082h.72V54.187h-.72Zm1.616-1.607a1.805,1.805,0,0,0,.4,1.209,1.514,1.514,0,0,0,2.191,0,1.8,1.8,0,0,0,.4-1.209v-.471a1.814,1.814,0,0,0-.4-1.21,1.5,1.5,0,0,0-2.19,0,1.811,1.811,0,0,0-.4,1.208V57.9Zm.72-.475a1.61,1.61,0,0,1,.192-.828.682.682,0,0,1,1.163,0,1.6,1.6,0,0,1,.193.826V57.9a1.612,1.612,0,0,1-.194.831.683.683,0,0,1-1.163,0,1.62,1.62,0,0,1-.191-.831v-.472Zm3.013.543a1.881,1.881,0,0,0,.336,1.168,1.113,1.113,0,0,0,.938.442,1.049,1.049,0,0,0,.485-.108,1,1,0,0,0,.362-.318v.335a1.133,1.133,0,0,1-.189.709.7.7,0,0,1-.584.242,1.681,1.681,0,0,1-.847-.225l-.154.518a2.2,2.2,0,0,0,1.008.266,1.462,1.462,0,0,0,1.094-.4,1.514,1.514,0,0,0,.393-1.109V55.818h-.622l-.053.443a1.127,1.127,0,0,0-.376-.38.975.975,0,0,0-.511-.132,1.088,1.088,0,0,0-.943.486,2.2,2.2,0,0,0-.337,1.28v.455Zm.72-.455a1.864,1.864,0,0,1,.183-.886.6.6,0,0,1,.56-.341.618.618,0,0,1,.389.127.98.98,0,0,1,.269.347V58.6a.828.828,0,0,1-.267.328.672.672,0,0,1-.4.115.6.6,0,0,1-.557-.292,1.493,1.493,0,0,1-.178-.782v-.455Zm3.6-1.7h-.78l1.186,3.675-.128.375a1.377,1.377,0,0,1-.19.408.387.387,0,0,1-.331.172q-.107-.006-.213-.021l-.08.512c.068.016.134.03.2.042a1.039,1.039,0,0,0,.189.019.823.823,0,0,0,.664-.268,2,2,0,0,0,.367-.65l1.344-4.265h-.783l-.739,2.66h-.021l-.054-.242-.632-2.418ZM65.23,37.971c-5.211,0-8.913-3.627-8.913-8.5s3.7-8.5,8.913-8.5c5.247,0,8.949,3.627,8.949,8.5s-3.7,8.5-8.949,8.5m0-14.923a6.1,6.1,0,0,0-6.324,6.425,6.343,6.343,0,1,0,12.686,0,6.107,6.107,0,0,0-6.361-6.424M82.157,37.557H79.569V13.1H94.914v2.28H82.157V23.7h11.86v2.28H82.157Zm27.494,0h-2.588V15.38H98.546V13.1h19.621v2.28h-8.516ZM16.98,3.029v.785H15.361V8.966a1.608,1.608,0,0,0,.131.717c.087.173.305.27.654.289a8.019,8.019,0,0,0,.832-.043v.783c-.144,0-.287.006-.431.016s-.287.015-.431.015a1.97,1.97,0,0,1-1.355-.363,1.77,1.77,0,0,1-.369-1.339V3.814H13V3.029h1.387V.734h.97V3.028H16.98ZM18.842.1V4.347h.031a2.264,2.264,0,0,1,.986-1.117,2.981,2.981,0,0,1,1.555-.423,4.071,4.071,0,0,1,1.394.208,2.2,2.2,0,0,1,.9.585,2.139,2.139,0,0,1,.478.924,5.016,5.016,0,0,1,.139,1.229v4.915h-.971V5.9a4.29,4.29,0,0,0-.092-.91,1.873,1.873,0,0,0-.324-.733,1.564,1.564,0,0,0-.623-.49,2.393,2.393,0,0,0-.978-.177,2.556,2.556,0,0,0-1.04.2,2.253,2.253,0,0,0-.77.549,2.517,2.517,0,0,0-.493.828,3.294,3.294,0,0,0-.192,1.045v4.455h-.971V.1Zm8.341,8.045a2.827,2.827,0,0,0,.47.971,2.638,2.638,0,0,0,.815.709,2.354,2.354,0,0,0,1.188.283,2.421,2.421,0,0,0,1.664-.534,2.766,2.766,0,0,0,.831-1.42h.971a3.694,3.694,0,0,1-1.132,2.013,3.466,3.466,0,0,1-2.333.711,3.831,3.831,0,0,1-1.625-.317,2.993,2.993,0,0,1-1.117-.875A3.753,3.753,0,0,1,26.274,8.4a5.674,5.674,0,0,1-.208-1.548,5.33,5.33,0,0,1,.208-1.48,3.908,3.908,0,0,1,.639-1.295,3.194,3.194,0,0,1,1.117-.919,3.55,3.55,0,0,1,1.625-.348,3.359,3.359,0,0,1,1.633.371,3.206,3.206,0,0,1,1.1.969A3.928,3.928,0,0,1,33,5.524,5.8,5.8,0,0,1,33.151,7.1H27.037a3.972,3.972,0,0,0,.146,1.044m4.806-2.85a2.773,2.773,0,0,0-.5-.866,2.457,2.457,0,0,0-.786-.606,2.307,2.307,0,0,0-1.047-.231,2.349,2.349,0,0,0-1.063.231,2.444,2.444,0,0,0-.785.606,3,3,0,0,0-.516.874,4.04,4.04,0,0,0-.254,1.014h5.144a3.273,3.273,0,0,0-.192-1.022M16.282,35.277H28.142v2.28H13.694V13.1h2.588ZM31.88,13.1h2.587V23.7H48.339V13.1h2.587V37.557H48.339V25.984H34.467V37.557H31.88Z" transform="translate(40 20)"/>
    <rect id="Rectangle_81" data-name="Rectangle 81" class="cls-2" width="129" height="14" transform="translate(40 74)"/>
  </g>
</svg>
