<?xml version="1.0" encoding="UTF-8"?>
<svg version="1.1" viewBox="0 0 100 78" xmlns="http://www.w3.org/2000/svg">
<title>mb-logo-footer</title>
<desc>Created with Sketch.</desc>
<g fill="none" fill-rule="evenodd">
<g fill-rule="nonzero">
<path d="m61.491 29.334c-3e-3 5.674-3.765 10.451-9.187 11.5-3.719 0.72-6.941-0.41-9.603-3.035-5.019-4.945-4.56-13.422 0.93-17.836 5.741-4.618 14.18-2.254 16.99 4.764 0.59 1.477 0.913 3.009 0.87 4.607z" fill="#DD1843"/>
<path d="m35.23 40.691c0.024-2.73 0.801-4.766 2.375-6.498 0.609-0.67 0.631-0.656 0.97 0.16 1.743 4.186 4.758 6.928 9.245 7.991 0.951 0.225 1.92 0.26 2.892 0.241 0.879-0.017 0.882-0.01 0.57 0.852-1.232 3.395-4.392 5.68-7.806 5.647-3.473-0.034-6.64-2.425-7.78-5.886-0.31-0.942-0.499-1.908-0.467-2.507m31.64-30.697c-0.205 4.225-2.144 7.807-6.06 10.29-0.488 0.308-0.814 0.367-1.24-0.145-0.865-1.039-1.936-1.862-3.126-2.518-0.337-0.187-0.408-0.36-0.222-0.719 1.464-2.826 2.501-5.82 3.52-8.824 0.887-2.62 2.02-5.116 3.941-7.18 0.161-0.172 0.337-0.33 0.5-0.5 0.251-0.262 0.429-0.233 0.556 0.114 1.09 2.961 2.059 5.95 2.13 9.482" fill="#DD1843"/>
<path d="m64.084 0.109c-0.184 0.196-0.25 0.288-0.337 0.356-1.871 1.49-3.162 3.41-4.177 5.535-1.206 2.523-2.27 5.114-3.618 7.571-0.47189 0.86894-0.99446 1.7094-1.565 2.517-0.23 0.324-0.45 0.442-0.884 0.329-1.332-0.349-2.692-0.54-4.074-0.357-0.523 0.07-0.614-0.19-0.681-0.636-0.834-5.562 2.25-11.434 8.383-13.668 2.075-0.756 4.212-1.239 6.374-1.644 0.135-0.025 0.278-3e-3 0.579-3e-3m-34.124 29.048c0.097-3.342 1.337-6.292 4.21-8.453 1.136-0.854 2.438-1.327 3.842-1.543 0.377-0.058 0.677 0.02 0.963 0.299 0.47 0.459 1.264 0.804 1.398 1.329 0.14 0.545-0.618 1.082-0.937 1.652-1.56 2.787-2.108 5.757-1.668 8.905 0.055 0.388-0.056 0.602-0.339 0.836-1.57 1.294-2.657 2.915-3.276 4.847-0.226 0.705-0.28 0.721-0.846 0.184-2.265-2.15-3.284-4.82-3.346-8.056m40.076 0.873c-0.099 3.439-1.163 6.454-3.963 8.676-1.246 0.99-1.268 0.966-1.748-0.474-0.4-1.2-1.017-2.277-1.89-3.198-0.28-0.293-0.332-0.551-0.194-0.943 1.41-4.014 1.108-7.9-0.966-11.629-0.212-0.38-0.15-0.555 0.21-0.776 0.625-0.38 1.238-0.79 1.804-1.249 0.348-0.283 0.64-0.308 1.028-0.136 2.833 1.254 4.411 3.528 5.262 6.382 0.33112 1.0839 0.48543 2.214 0.457 3.347m-6.839 11.74c-2e-3 2.991-2.365 5.944-5.808 6.557-2.056 0.366-3.879-0.235-5.462-1.582-0.282-0.24-0.34-0.445-0.125-0.773 0.64284-0.98664 1.0994-2.0827 1.347-3.234 0.078-0.357 0.26-0.509 0.587-0.605 3.106-0.913 5.493-2.775 7.228-5.467 0.289-0.447 0.464-0.423 0.752-0.026 0.984 1.358 1.503 2.86 1.48 5.13m-22.408-38.106c-0.051 2.62 1.068 4.81 2.319 6.966 1.015 1.75 2.011 3.513 2.72 5.418 0.192 0.514 0.132 0.79-0.424 1.013-1.2297 0.50023-2.3551 1.226-3.318 2.14-0.358 0.336-0.598 0.288-0.962 0.021-3.395-2.487-4.682-6.5-3.304-10.45 0.655-1.877 1.712-3.535 2.969-5.108m9.273 50.542c-2.085-2e-3 -3.903-1.075-4.51-2.713-0.383-1.036-0.223-1.003 0.59-1.219 1.512-0.402 2.837-1.174 3.965-2.25 0.328-0.313 0.536-0.32 0.875-0.014 0.91547 0.83031 2.0247 1.4176 3.226 1.708 0.517 0.125 0.636 0.38 0.599 0.842-0.086 1.078-0.614 1.914-1.443 2.567-0.962 0.758-2.071 1.111-3.302 1.08" fill="#DD1843"/>
<path d="m46.955 15.318c-1.28-2.463-2.962-4.568-4.385-6.838-0.832-1.326-1.404-2.765-1.601-4.328-0.028-0.215-0.15-0.503 0.09-0.649 0.195-0.12 0.403 0.076 0.588 0.165 2.136 1.028 4.209 2.144 5.815 3.951 0.44 0.496 0.551 0.93 0.305 1.576-0.627 1.648-0.747 3.381-0.674 5.13 0.011 0.258 0.013 0.516 0.01 0.774 0 0.036-0.045 0.07-0.148 0.22" fill="#DD1843"/>
<path d="m8.22 77.227v-7.035l-2.907 5.328h-0.853l-2.919-5.328v7.035h-1.541v-9.775h1.652l3.235 5.975 3.236-5.975h1.652v9.775h-1.555zm7.489-4.887c0 0.458 0.07 0.904 0.213 1.335 0.142 0.431 0.346 0.812 0.613 1.142 0.266 0.331 0.587 0.595 0.963 0.792 0.377 0.198 0.799 0.296 1.267 0.296 0.477 0 0.906-0.103 1.287-0.31 0.38-0.206 0.702-0.48 0.964-0.819 0.262-0.34 0.461-0.72 0.599-1.142 0.138-0.423 0.206-0.854 0.206-1.295 0.0018823-0.45646-0.072474-0.91003-0.22-1.342-0.13791-0.4102-0.34786-0.79251-0.62-1.129-0.26434-0.32436-0.59201-0.59146-0.963-0.785-0.38708-0.1999-0.81738-0.30155-1.253-0.296-0.477 0-0.907 0.104-1.287 0.31-0.381 0.207-0.702 0.475-0.964 0.806-0.262 0.33-0.461 0.709-0.599 1.135-0.138 0.427-0.206 0.86-0.206 1.301v1e-3zm3.042 4.956c-0.688 0-1.315-0.14-1.88-0.42-0.55432-0.27261-1.0497-0.65145-1.458-1.115-0.41043-0.46678-0.73023-1.006-0.943-1.59-0.21831-0.58612-0.33007-1.2065-0.33-1.832 0-0.651 0.116-1.275 0.35-1.872 0.22503-0.58194 0.55367-1.1183 0.97-1.583 0.41358-0.45945 0.9147-0.83172 1.474-1.095 0.58094-0.27329 1.216-0.41207 1.858-0.406 0.689 0 1.315 0.145 1.88 0.434 0.55327 0.28064 1.0465 0.66651 1.452 1.136 0.404 0.468 0.716 0.998 0.936 1.59 0.67699 1.8004 0.2953 3.828-0.99 5.259-0.4135 0.45472-0.91183 0.82431-1.467 1.088-0.5786 0.27389-1.2119 0.41272-1.852 0.406zm14.621-3.029c0-0.303-0.087-0.56-0.262-0.771-0.15819-0.20322-0.40249-0.32056-0.66-0.317h-2.602v2.134h2.505c0.27276 0.0083964 0.5369-0.096172 0.73-0.289 0.193-0.193 0.29-0.445 0.29-0.757h-1e-3zm-3.524-4.888v2.024h2.216c0.24305 0.0015047 0.47809-0.086813 0.66-0.248 0.194-0.165 0.29-0.422 0.29-0.77 0-0.322-0.085-0.57-0.255-0.744-0.15814-0.16942-0.38026-0.2645-0.612-0.262h-2.3 1e-3zm5.823 5.342c0 0.422-0.087 0.79-0.261 1.102-0.17426 0.31169-0.41956 0.57789-0.716 0.777-0.32366 0.21626-0.68228 0.37493-1.06 0.469-0.404 0.105-0.831 0.158-1.28 0.158h-4.764v-9.775h5.438c0.34 0 0.647 0.074 0.922 0.22 0.276 0.147 0.51 0.338 0.702 0.572 0.39189 0.48532 0.60575 1.0902 0.606 1.714 0 0.468-0.117 0.908-0.351 1.321-0.23978 0.41829-0.60949 0.74692-1.053 0.936 0.56 0.166 1.002 0.46 1.328 0.882s0.49 0.963 0.49 1.624h-1e-3zm10.959 0.523v1.983h-6.87v-9.775h6.746v1.983h-4.488v1.9h3.855v1.83h-3.855v2.08l4.612-1e-3zm6.416-3.139h2.065c0.266 0 0.495-0.126 0.688-0.378 0.193-0.253 0.29-0.576 0.29-0.97 0-0.405-0.11-0.726-0.331-0.965-0.22-0.238-0.46-0.357-0.716-0.357h-1.996v2.67zm-2.258 5.122v-9.775h4.405c0.46 0 0.884 0.096 1.274 0.29 0.39 0.192 0.727 0.444 1.012 0.756 0.284 0.312 0.507 0.666 0.667 1.06 0.16 0.395 0.241 0.794 0.241 1.198 0.0015482 0.58247-0.14505 1.1558-0.426 1.666-0.27244 0.4921-0.6779 0.89756-1.17 1.17l2.243 3.635h-2.547l-1.968-3.153h-1.473v3.153h-2.258zm14.372-5.122h2.066c0.266 0 0.496-0.126 0.688-0.378 0.193-0.253 0.29-0.576 0.29-0.97 0-0.405-0.11-0.726-0.331-0.965-0.22-0.238-0.46-0.357-0.716-0.357h-1.996v2.67h-1e-3zm-2.257 5.122v-9.775h4.406c0.458 0 0.883 0.096 1.273 0.29 0.39 0.192 0.727 0.444 1.012 0.756 0.284 0.312 0.507 0.666 0.668 1.06 0.16 0.395 0.24 0.794 0.24 1.198 0.0015482 0.58247-0.14505 1.1558-0.426 1.666-0.2727 0.4919-0.6781 0.8973-1.17 1.17l2.244 3.635h-2.547l-1.969-3.153h-1.473v3.153h-2.258zm12.115 0h2.258v-9.775h-2.258v9.775zm13.754-1.983v1.983h-6.87v-9.775h6.746v1.983h-4.488v1.9h3.855v1.83h-3.855v2.08l4.612-1e-3zm9.94-4.928c-0.094963-0.077447-0.19633-0.1467-0.303-0.207-0.44903-0.26326-0.9304-0.46697-1.432-0.606-0.28625-0.081557-0.58236-0.12328-0.88-0.124-0.386 0-0.682 0.07-0.889 0.207-0.206 0.138-0.31 0.34-0.31 0.606 0 0.165 0.046 0.303 0.138 0.413s0.222 0.209 0.392 0.296 0.381 0.167 0.634 0.24c0.252 0.074 0.544 0.157 0.874 0.249 0.468 0.128 0.89 0.268 1.267 0.42 0.376 0.15 0.697 0.339 0.963 0.564s0.47 0.498 0.613 0.819c0.142 0.321 0.213 0.707 0.213 1.156 0 0.551-0.103 1.017-0.31 1.398-0.206 0.38-0.48 0.688-0.819 0.922-0.34 0.234-0.732 0.404-1.177 0.51-0.44896 0.10581-0.90874 0.15883-1.37 0.158-0.74149-0.0059836-1.4785-0.11503-2.19-0.324-0.35571-0.10459-0.7047-0.23082-1.045-0.378-0.32735-0.14018-0.64073-0.31094-0.936-0.51l0.991-1.968c0.046 0.046 0.17 0.133 0.372 0.261 0.202 0.129 0.45 0.257 0.743 0.386 0.294 0.128 0.624 0.243 0.991 0.344 0.368 0.101 0.74 0.151 1.116 0.151 0.798 0 1.197-0.243 1.197-0.73 0.0053794-0.16952-0.059376-0.33376-0.179-0.454-0.14474-0.13591-0.31231-0.24525-0.495-0.323-0.24121-0.10743-0.48986-0.19733-0.744-0.269-0.284-0.082-0.596-0.174-0.936-0.275-0.40089-0.11877-0.79204-0.26821-1.17-0.447-0.30277-0.14175-0.58147-0.33003-0.826-0.558-0.21548-0.20375-0.38258-0.45319-0.489-0.73-0.11109-0.30864-0.16464-0.63504-0.158-0.963 0-0.514 0.096-0.969 0.289-1.363 0.193-0.395 0.454-0.728 0.785-0.998 0.33-0.271 0.713-0.475 1.15-0.613 0.44764-0.13959 0.91411-0.20941 1.383-0.207 0.349 0 0.688 0.033 1.019 0.097 0.61984 0.11878 1.2216 0.31779 1.79 0.592 0.266 0.128 0.504 0.257 0.715 0.385l-0.977 1.873z" fill="#011627"/>
</g>
</g>
</svg>
