<?xml version="1.0" encoding="UTF-8"?>
<svg width="555px" height="91px" viewBox="0 0 555 91" version="1.1" xmlns="http://www.w3.org/2000/svg" xmlns:xlink="http://www.w3.org/1999/xlink">
    <!-- Generator: Sketch 54.1 (76490) - https://sketchapp.com -->
    <title>mb-logo-home</title>
    <desc>Created with Sketch.</desc>
    <g id="Page-1" stroke="none" stroke-width="1" fill="none" fill-rule="evenodd">
        <g id="mb-logo-home" fill-rule="nonzero">
            <path d="M163.87,67.31 L163.87,37.2 L151.42,60 L147.76,60 L135.25,37.2 L135.25,67.31 L128.64,67.31 L128.64,25.48 L135.72,25.48 L149.59,51.05 L163.46,25.48 L170.54,25.48 L170.54,67.31 L163.87,67.31 Z M196,46.69 C195.994529,48.6298672 196.301804,50.5579326 196.91,52.4 C197.477725,54.1781902 198.369383,55.8360643 199.54,57.29 C200.662433,58.6983742 202.069854,59.8536186 203.67,60.68 C205.334239,61.5569051 207.188897,62.0102659 209.07,62 C210.989786,62.031557 212.886002,61.5738496 214.58,60.67 C216.188726,59.8085815 217.596385,58.6156503 218.71,57.17 C219.839479,55.6986266 220.708704,54.0447334 221.28,52.28 C221.866117,50.4918904 222.163184,48.6217169 222.16,46.74 C222.169982,44.7842877 221.852251,42.8407213 221.22,40.99 C220.628065,39.236475 219.73094,37.6013378 218.57,36.16 C217.434066,34.7728875 216.029213,33.6299565 214.44,32.8 C211.004148,31.0994065 206.966905,31.1216503 203.55,32.86 C201.951516,33.7149147 200.545774,34.8892032 199.42,36.31 C198.279494,37.7632119 197.409032,39.4093008 196.85,41.17 C196.268589,42.9695575 195.971681,44.8488513 195.97,46.74 L196,46.69 Z M209,67.9 C206.229976,67.9271124 203.49146,67.3109463 201,66.1 C198.621583,64.9391883 196.497209,63.3178658 194.75,61.33 C193.005325,59.3281038 191.648852,57.0187086 190.75,54.52 C189.81062,52.0163632 189.329616,49.3640665 189.33,46.69 C189.324281,43.952899 189.833116,41.2391129 190.83,38.69 C191.799998,36.2023919 193.209049,33.9092973 194.99,31.92 C196.762377,29.9529198 198.911468,28.361504 201.31,27.24 C203.81093,26.0629521 206.546113,25.4680498 209.31,25.5 C212.105715,25.4654589 214.869181,26.0997532 217.37,27.35 C219.739555,28.5502509 221.852316,30.2010581 223.59,32.21 C228.955609,38.435924 230.465445,47.106914 227.52,54.78 C226.557406,57.2652765 225.147444,59.5530752 223.36,61.53 C221.582572,63.4708497 219.446726,65.0498141 217.07,66.18 C214.548419,67.3673546 211.786583,67.9559988 209,67.9 Z M271.42,54.64 C271.448314,53.4422176 271.051526,52.2731096 270.3,51.34 C269.617211,50.4764984 268.57067,49.9809631 267.47,50 L256.32,50 L256.32,59.13 L267.06,59.13 C268.229753,59.1663486 269.36251,58.7175887 270.19,57.89 C271.030634,57.0260483 271.479028,55.8544397 271.43,54.65 L271.42,54.64 Z M256.32,33.73 L256.32,42.3900553 L265.82,42.39 C266.861339,42.3953082 267.868387,42.0181102 268.65,41.33 C269.538052,40.4721101 269.993354,39.2604184 269.89,38.03 C269.968609,36.8666137 269.57577,35.7205332 268.8,34.85 C268.125781,34.1209238 267.172902,33.7135865 266.18,33.73 L256.32,33.73 Z M281.32,56.59 C281.361526,58.2305702 280.975553,59.8537244 280.2,61.3 C279.453781,62.6367075 278.401772,63.7778118 277.13,64.63 C275.742222,65.5514742 274.206603,66.2279585 272.59,66.63 C270.796443,67.08963 268.951497,67.318148 267.1,67.31 L246.65,67.3102104 L246.65,25.4699462 L270,25.47 C271.395808,25.4650008 272.770757,25.8087381 274,26.47 C275.149231,27.0803954 276.16828,27.9092225 277,28.91 C277.832456,29.9290644 278.478991,31.0867355 278.91,32.33 C279.363285,33.5870788 279.593413,34.9136982 279.59,36.25 C279.598019,38.2327893 279.080452,40.1822916 278.09,41.9 C277.058217,43.6892334 275.471431,45.0934686 273.57,45.9 C275.824416,46.5144598 277.822286,47.8358581 279.27,49.67 C280.726433,51.6866929 281.462535,54.1344952 281.36,56.62 L281.32,56.59 Z M327.16,58.83 L327.16,67.31 L297.67,67.31 L297.67,25.48 L326.59,25.48 L326.59,34 L307.35,34 L307.35,42.13 L323.87,42.13 L323.87,49.97 L307.35,49.97 L307.35,58.87 L327.16,58.83 Z M355.23,45.39 L364,45.39 C365.206711,45.3806705 366.330358,44.7739013 367,43.77 C367.86769,42.5651908 368.304484,41.1033381 368.24,39.62 C368.318604,38.1114955 367.809645,36.631213 366.82,35.49 C366.055367,34.5735319 364.933163,34.0306477 363.74,34 L355.19,34 L355.23,45.39 Z M345.55,67.31 L345.55,25.4696435 L364.43,25.47 C366.3214,25.4555585 368.190374,25.8800141 369.89,26.71 C371.516549,27.5279779 372.97513,28.6439621 374.19,30 C375.402325,31.3338067 376.370426,32.8705836 377.05,34.54 C377.71532,36.1682356 378.055057,37.9110868 378.05,39.67 C378.059878,42.1640686 377.429796,44.6189754 376.22,46.8 C375.05545,48.9027645 373.322765,50.6354496 371.22,51.8 L380.84,67.36 L369.94,67.36 L361.5,53.82 L355.19,53.82 L355.19,67.31 L345.55,67.31 Z M406.26,45.39 L415.11,45.39 C416.277498,45.345108 417.352487,44.7425191 418,43.77 C418.863478,42.5631225 419.299828,41.1027567 419.24,39.62 C419.31443,38.1120848 418.805991,36.6333155 417.82,35.49 C417.062235,34.5812399 415.95259,34.0391512 414.77,34 L406.22,34 L406.26,45.39 Z M396.58,67.31 L396.58,25.4696435 L415.46,25.47 C417.3514,25.4555585 419.220374,25.8800141 420.92,26.71 C422.546549,27.5279779 424.00513,28.6439621 425.22,30 C426.432325,31.3338067 427.400426,32.8705836 428.08,34.54 C428.74532,36.1682356 429.085057,37.9110868 429.08,39.67 C429.089878,42.1640686 428.459796,44.6189754 427.25,46.8 C426.082426,48.900485 424.350485,50.6324259 422.25,51.8 L431.86,67.36 L421,67.36 L412.56,53.87 L406.25,53.87 L406.25,67.31 L396.58,67.31 Z M447.58,67.31 L457.25,67.31 L457.25,25.48 L447.58,25.48 L447.58,67.31 Z M508.91,58.83 L508.91,67.31 L479.46,67.31 L479.46,25.48 L508.37,25.48 L508.37,34 L489.14,34 L489.14,42.13 L505.66,42.13 L505.66,49.97 L489.14,49.97 L489.14,58.87 L508.91,58.83 Z M549.07,38.09 C548.668889,37.7534993 548.236983,37.4555173 547.78,37.2 C546.923615,36.692668 546.035064,36.2417115 545.12,35.85 C543.991808,35.3523142 542.8287,34.9378737 541.64,34.61 C540.410633,34.2590918 539.138467,34.0807193 537.86,34.08 C536.534673,33.997131 535.213983,34.3029751 534.06,34.96 C533.183983,35.5267999 532.676969,36.5179564 532.73,37.56 C532.70984,38.1983494 532.919166,38.8227794 533.32,39.32 C533.7879,39.8530763 534.359532,40.2852029 535,40.59 C535.873171,41.0082008 536.78388,41.34302 537.72,41.59 C538.8,41.91 540.05,42.26 541.46,42.65 C543.303282,43.1445009 545.116327,43.7455104 546.89,44.45 C548.380254,45.0411913 549.767446,45.864731 551,46.89 C552.128822,47.8479416 553.027679,49.0475574 553.63,50.4 C554.281248,51.984223 554.591319,53.6879097 554.54,55.4 C554.610628,57.480239 554.153059,59.5444616 553.21,61.4 C552.381657,62.9982233 551.177039,64.3710072 549.7,65.4 C548.182567,66.4297622 546.48719,67.1689464 544.7,67.58 C542.77625,68.0331141 540.806392,68.261309 538.83,68.26 C537.259859,68.2575795 535.692117,68.137241 534.14,67.9 C532.554957,67.6781603 530.987678,67.3439856 529.45,66.9 C527.921945,66.4513102 526.422524,65.9103162 524.96,65.28 C523.561319,64.6802443 522.222097,63.9503686 520.96,63.1 L525.21,54.67 C525.705892,55.0895465 526.237971,55.4643444 526.8,55.79 C527.828187,56.3682875 528.897777,56.8696578 530,57.29 C531.377644,57.8801813 532.794336,58.3746869 534.24,58.77 C535.797412,59.196781 537.405172,59.4120459 539.02,59.41 C542.446667,59.41 544.16,58.37 544.16,56.29 C544.180715,55.5650175 543.902255,54.863443 543.39,54.35 C542.750312,53.7777183 542.016061,53.3209259 541.22,53 C540.176088,52.5278579 539.100066,52.1301976 538,51.81 C536.66,51.43 535.32,51.03 534,50.63 C532.285424,50.1266237 530.613508,49.4879515 529,48.72 C527.703755,48.1107521 526.50962,47.3045419 525.46,46.33 C524.536008,45.461727 523.821356,44.394878 523.37,43.21 C522.889351,41.8908364 522.658748,40.4936521 522.69,39.09 C522.648324,37.0738398 523.072677,35.0752768 523.93,33.25 C524.728577,31.606455 525.875077,30.1562693 527.29,29 C528.750193,27.8187182 530.423913,26.9292363 532.22,26.38 C534.139633,25.7833837 536.139835,25.4865578 538.15,25.5 C539.613013,25.4988286 541.072853,25.6361072 542.51,25.91 C545.168172,26.4194611 547.749488,27.2698165 550.19,28.44 C551.33,28.9866667 552.35,29.5366667 553.25,30.09 L549.06,38.09 L549.07,38.09 Z" id="Wordmark" fill="#011627"></path>
            <g id="Berry" fill="#DD1843">
                <path d="M53.28,49.29 C53.28,58.79 46.97,66.78 37.88,68.54 C31.65,69.74 26.25,67.85 21.79,63.46 C17.7848373,59.4154355 15.670959,53.8694154 15.9679302,48.1850828 C16.2649013,42.5007501 18.9451848,37.2051952 23.35,33.6 C32.97,25.87 47.12,29.83 51.82,41.6 C52.8378527,44.0404103 53.335123,46.6664062 53.28,49.31 L53.28,49.29 Z" id="Shape"></path>
                <path d="M9.26,68.3 C9.12327037,64.2904394 10.5586687,60.3861559 13.26,57.42 C14.26,56.3 14.32,56.32 14.88,57.69 C17.8,64.69 22.88,69.28 30.38,71.06 C31.9728073,71.4013239 33.6024978,71.5390915 35.23,71.47 C36.7,71.47 36.71,71.47 36.23,72.89 C34.3064438,78.4885983 29.0694405,82.272213 23.15,82.34 C17.1678115,82.1414722 11.9597189,78.1953405 10.15,72.49 C9.66202707,71.1451862 9.39523494,69.7301749 9.36,68.3 M62.36,16.92 C62.1241394,24.030573 58.2686653,30.5267826 52.14,34.14 C51.32,34.66 50.78,34.75 50.06,33.9 C48.5940842,32.1765016 46.8163696,30.7448306 44.82,29.68 C44.26,29.37 44.14,29.08 44.45,28.48 C46.7846381,23.7117499 48.7568814,18.7744562 50.35,13.71 C51.84,9.32 53.73,5.15 56.96,1.71 C57.23,1.42 57.52,1.16 57.8,0.88 C58.22,0.44 58.51,0.49 58.73,1.07 C60.55,6.07 62.18,11.07 62.3,16.94" id="Shape-2"></path>
                <path d="M57.63,0.37 C57.32,0.7 57.21,0.85 57.07,0.97 C54.0581458,3.47970733 51.6632012,6.64787681 50.07,10.23 C48.07,14.46 46.27,18.79 44.01,22.9 C43.2198043,24.3566115 42.344973,25.765691 41.39,27.12 C41.1030657,27.6528098 40.4642989,27.8885961 39.9,27.67 C37.6885387,27.0218874 35.3706529,26.8179678 33.08,27.07 C32.2,27.19 32.08,26.75 31.93,26.01 C30.5209044,15.9949344 36.4265783,6.39139349 46,3.13 C49.4714975,1.92119889 53.0369687,1.00140098 56.66,0.38 C56.9929071,0.356160029 57.3270929,0.356160029 57.66,0.38 M0.43,49 C0.385273537,43.4229866 3.00905029,38.1605675 7.49,34.84 C9.38621121,33.4533156 11.6008738,32.566075 13.93,32.26 C14.5171525,32.134203 15.1274048,32.3237224 15.54,32.76 C16.33,33.53 17.66,34.11 17.89,34.98 C18.12,35.85 16.89,36.8 16.31,37.75 C13.7348891,42.2630684 12.7522261,47.510982 13.52,52.65 C13.6394293,53.189777 13.4124985,53.7471508 12.95,54.05 C10.3664171,56.1625631 8.45790805,58.9853488 7.46,62.17 C7.08,63.35 6.99,63.37 6.04,62.48 C2.25,58.88 0.54,54.41 0.43,49 M67.61,50.46 C67.44,56.22 65.61,61.26 60.97,64.98 C58.88,66.64 58.84,66.6 58.03,64.19 C57.3907033,62.1924812 56.3107753,60.3641221 54.87,58.84 C54.4195614,58.4460898 54.2848845,57.8012728 54.54,57.26 C56.9514612,50.8594347 56.3565977,43.7137279 52.92,37.8 C52.57,37.16 52.67,36.87 53.28,36.5 C54.3237478,35.8683314 55.3258136,35.1702256 56.28,34.41 C56.7351588,33.9543784 57.4375047,33.8563766 58,34.17 C62.75,36.27 65.4,40.07 66.82,44.85 C67.3713153,46.6641749 67.6312147,48.5543522 67.59,50.45 M56.14,70.1 C56.14,75.1 52.14,80.1 46.41,81.1 C43.1106569,81.690118 39.724644,80.7105401 37.25,78.45 C37.0131771,78.3358225 36.8444532,78.1161941 36.795169,77.8579448 C36.7458848,77.5996956 36.8218688,77.3333672 37,77.14 C38.0812619,75.488233 38.847498,73.6506226 39.26,71.72 C39.3435747,71.2062894 39.7462894,70.8035747 40.26,70.72 C45.3028605,69.2783665 49.6297547,66.013593 52.4,61.56 C52.89,60.81 53.18,60.85 53.66,61.56 C55.4524378,64.0479131 56.3286874,67.079454 56.14,70.14 M18.58,6.32 C18.5,10.71 20.37,14.32 22.47,17.98 C24.2326811,20.8703941 25.7480679,23.9045129 27,27.05 C27.32,27.91 27.22,28.37 26.29,28.75 C24.2278927,29.5828122 22.3415319,30.7974114 20.73,32.33 C20.13,32.89 19.73,32.81 19.11,32.33 C13.5013565,28.4377204 11.2284645,21.2491344 13.58,14.84 C14.7476177,11.7260648 16.4386057,8.83447525 18.58,6.29 M34.13,90.89 C30.63,90.89 27.58,89.09 26.57,86.35 C25.92,84.61 26.19,84.67 27.57,84.35 C30.0701166,83.6766579 32.3582938,82.3794507 34.22,80.58 C34.77,80.05 35.12,80.04 35.69,80.58 C37.2234239,81.9720439 39.0847441,82.9525916 41.1,83.43 C41.4321512,83.457654 41.7351519,83.6305326 41.9279657,83.9024002 C42.1207796,84.1742677 42.1837369,84.5173899 42.1,84.84 C41.9601909,86.5580221 41.0760661,88.1289876 39.68,89.14 C38.1133041,90.3868536 36.1507261,91.0292164 34.15,90.95" id="Shape-3"></path>
                <path d="M28.92,25.83 C26.77,21.71 23.92,18.18 21.57,14.38 C20.1530737,12.193223 19.2346927,9.72144666 18.88,7.14 C18.88,6.78 18.63,6.3 19.03,6.05 C19.43,5.8 19.71,6.18 20.03,6.33 C23.61,8.05 27.09,9.92 29.78,12.94 C30.5089554,13.6138258 30.7155291,14.6831488 30.29,15.58 C29.3313099,18.3362715 28.9467559,21.2595625 29.16,24.17 C29.16,24.6 29.16,25.03 29.16,25.46 C29.16,25.52 29.08,25.58 28.91,25.83" id="Shape-4"></path>
            </g>
        </g>
    </g>
</svg>